# xmcd
#
# Track frame offsets:
#	150
#	16155
#	30837
#	47398
#	62351
#	83019
#	101119
#	116421
#	128623
#	145514
#	165337
#	179822
#	196468
#
# Disc length: 3332 seconds
#
# Revision: 1
# Processed by: cddbd v1.5.2PL0 Copyright (c) Steve Scherf et al.
# Submitted via: audiograbber 1.83.01
#
DISCID=950d020d
DTITLE=Bill Cave - Sound Expermint
DYEAR=2009
DGENRE=
TTITLE0=I´m Home
TTITLE1=Trade Time
TTITLE2=Fair Lady
TTITLE3=Sometimes
TTITLE4=My Friend
TTITLE5=Snow Princess
TTITLE6=Proud Waves
TTITLE7=Standing In The Rain
TTITLE8=David
TTITLE9=Next To You
TTITLE10=Do It To It
TTITLE11=Won´t Cry
TTITLE12=Somewhere
EXTD=
EXTT0=
EXTT1=
EXTT2=
EXTT3=
EXTT4=
EXTT5=
EXTT6=
EXTT7=
EXTT8=
EXTT9=
EXTT10=
EXTT11=
EXTT12=
PLAYORDER=
